<svg xmlns="http://www.w3.org/2000/svg" enable-background="new 0 0 64 64" height="64" width="64"><rect id="backgroundrect" width="100%" height="100%" x="0" y="0" fill="none" stroke="none"/>

<g class="currentLayer" style=""><title>Layer 1</title><path d="m60 1h-44c-1.654 0-3 1.346-3 3v15h-7c-2.757 0-5 2.243-5 5v24c0 2.757 2.243 5 5 5h9.612l-1.333 4h-3.279c-1.654 0-3 1.346-3 3v3h30v-3c0-1.654-1.346-3-3-3h-3.279l-1.333-4h9.612c2.757 0 5-2.243 5-5v-1h15c1.654 0 3-1.346 3-3v-40c0-1.654-1.346-3-3-3zm-44 2h44c.551 0 1 .449 1 1v5h-46v-5c0-.551.449-1 1-1zm-10 18h34c1.654 0 3 1.346 3 3v19h-40v-19c0-1.654 1.346-3 3-3zm39 6h12v14h-12zm-9 33v1h-26v-1c0-.551.449-1 1-1h24c.551 0 1 .449 1 1zm-6.388-3h-13.224l1.333-4h10.558zm10.388-6h-34c-1.654 0-3-1.346-3-3v-3h40v3c0 1.654-1.346 3-3 3zm20-6h-15v-2h14v-18h-14v-1c0-2.757-2.243-5-5-5h-25v-8h46v33c0 .551-.449 1-1 1z" id="svg_1" class="" fill="#7510f7" fill-opacity="1"/><path d="m18 47h2v2h-2z" id="svg_2" class="" fill="#7510f7" fill-opacity="1"/><path d="m22 47h2v2h-2z" id="svg_3" class="" fill="#7510f7" fill-opacity="1"/><path d="m26 47h2v2h-2z" id="svg_4" class="" fill="#7510f7" fill-opacity="1"/><path d="m21 5h2v2h-2z" id="svg_5" class="" fill="#7510f7" fill-opacity="1"/><path d="m25 5h2v2h-2z" id="svg_6" class="" fill="#7510f7" fill-opacity="1"/><path d="m17 5h2v2h-2z" id="svg_7" class="" fill="#7510f7" fill-opacity="1"/><path d="m17 13h2v2h-2z" id="svg_8" class="" fill="#7510f7" fill-opacity="1"/><path d="m21 13h38v2h-38z" id="svg_9" class="" fill="#7510f7" fill-opacity="1"/><path d="m47 17h12v2h-12z" id="svg_10" class="" fill="#7510f7" fill-opacity="1"/><path d="m47 21h12v2h-12z" id="svg_11" class="" fill="#7510f7" fill-opacity="1"/><path d="m8 41h20c1.654 0 3-1.346 3-3v-12c0-1.654-1.346-3-3-3h-20c-1.654 0-3 1.346-3 3v12c0 1.654 1.346 3 3 3zm-1-15c0-.551.449-1 1-1h20c.551 0 1 .449 1 1v12c0 .551-.449 1-1 1h-20c-.551 0-1-.449-1-1z" id="svg_12" class="" fill="#7510f7" fill-opacity="1"/><path d="m15.057300000000001,37.667425 h3.9970840000000005 v0.632 h-3.9970840000000005 z" id="svg_13" class="" fill="#7510f7" fill-opacity="1"/><path d="m22.707 36.707 4.707-4.707-4.707-4.707-1.414 1.414 3.293 3.293-3.293 3.293z" id="svg_14" class="" fill="#7510f7" fill-opacity="1"/><path d="m14.707 35.293-3.293-3.293 3.293-3.293-1.414-1.414-4.707 4.707 4.707 4.707z" id="svg_15" class="" fill="#7510f7" fill-opacity="1"/><path d="m33 23h8v2h-8z" id="svg_16" class="" fill="#7510f7" fill-opacity="1"/><path d="m33 27h8v2h-8z" id="svg_17" class="" fill="#7510f7" fill-opacity="1"/><path d="m33 31h8v2h-8z" id="svg_18" class="" fill="#7510f7" fill-opacity="1"/><path d="m33 35h8v2h-8z" id="svg_19" class="" fill="#7510f7" fill-opacity="1"/><path d="m35 39h2v2h-2z" id="svg_20" class="" fill="#7510f7" fill-opacity="1"/><path d="m39 39h2v2h-2z" id="svg_21" class="" fill="#7510f7" fill-opacity="1"/></g></svg>